<mxfile host="app.diagrams.net" agent="Mozilla/5.0 (Windows NT 10.0; Win64; x64) AppleWebKit/537.36 (KHTML, like Gecko) Chrome/131.0.0.0 Safari/537.36 Edg/131.0.0.0" version="26.0.6">
  <diagram name="Page-1" id="bDVaPMOAvEDIyb-Q__tf">
    <mxGraphModel dx="466" dy="457" grid="1" gridSize="10" guides="1" tooltips="1" connect="1" arrows="1" fold="1" page="1" pageScale="1" pageWidth="850" pageHeight="1100" math="0" shadow="0">
      <root>
        <mxCell id="0" />
        <mxCell id="1" parent="0" />
        <mxCell id="q3IGI3SHitdTz25xL4jD-15" value="" style="rounded=1;whiteSpace=wrap;html=1;" vertex="1" parent="1">
          <mxGeometry x="40" y="210" width="300" height="60" as="geometry" />
        </mxCell>
        <mxCell id="q3IGI3SHitdTz25xL4jD-16" value="" style="ellipse;shape=cloud;whiteSpace=wrap;html=1;" vertex="1" parent="1">
          <mxGeometry x="205.5" y="290" width="180" height="155" as="geometry" />
        </mxCell>
        <mxCell id="q3IGI3SHitdTz25xL4jD-18" value="Memory Pool" style="rounded=0;whiteSpace=wrap;html=1;fillColor=none;strokeColor=none;fontStyle=1" vertex="1" parent="1">
          <mxGeometry x="240" y="340" width="135" height="30" as="geometry" />
        </mxCell>
        <mxCell id="q3IGI3SHitdTz25xL4jD-20" value="" style="rounded=0;whiteSpace=wrap;html=1;" vertex="1" parent="1">
          <mxGeometry x="40" y="40" width="200" height="150" as="geometry" />
        </mxCell>
        <mxCell id="q3IGI3SHitdTz25xL4jD-21" value="OS_commsQueue_t" style="text;html=1;align=center;verticalAlign=middle;whiteSpace=wrap;rounded=0;fontStyle=1" vertex="1" parent="1">
          <mxGeometry x="50" y="40" width="180" height="30" as="geometry" />
        </mxCell>
        <mxCell id="q3IGI3SHitdTz25xL4jD-22" value="Packets Array Pointer" style="rounded=0;whiteSpace=wrap;html=1;fontStyle=0" vertex="1" parent="1">
          <mxGeometry x="60" y="70" width="160" height="30" as="geometry" />
        </mxCell>
        <mxCell id="q3IGI3SHitdTz25xL4jD-23" value="&lt;span style=&quot;font-weight: normal;&quot;&gt;Access Token&lt;/span&gt;" style="rounded=0;whiteSpace=wrap;html=1;fontStyle=1" vertex="1" parent="1">
          <mxGeometry x="60" y="110" width="160" height="30" as="geometry" />
        </mxCell>
        <mxCell id="q3IGI3SHitdTz25xL4jD-24" value="Insert Index" style="rounded=0;whiteSpace=wrap;html=1;fontStyle=0" vertex="1" parent="1">
          <mxGeometry x="60" y="150" width="80" height="30" as="geometry" />
        </mxCell>
        <mxCell id="q3IGI3SHitdTz25xL4jD-26" value="Remove Index" style="rounded=0;whiteSpace=wrap;html=1;fontStyle=0" vertex="1" parent="1">
          <mxGeometry x="150" y="150" width="70" height="30" as="geometry" />
        </mxCell>
        <mxCell id="q3IGI3SHitdTz25xL4jD-27" value="" style="whiteSpace=wrap;html=1;aspect=fixed;" vertex="1" parent="1">
          <mxGeometry x="47.5" y="217.5" width="45" height="45" as="geometry" />
        </mxCell>
        <mxCell id="q3IGI3SHitdTz25xL4jD-29" value="" style="whiteSpace=wrap;html=1;aspect=fixed;" vertex="1" parent="1">
          <mxGeometry x="105" y="217.5" width="45" height="45" as="geometry" />
        </mxCell>
        <mxCell id="q3IGI3SHitdTz25xL4jD-31" value="" style="whiteSpace=wrap;html=1;aspect=fixed;" vertex="1" parent="1">
          <mxGeometry x="160.5" y="217.5" width="45" height="45" as="geometry" />
        </mxCell>
        <mxCell id="q3IGI3SHitdTz25xL4jD-32" value="" style="whiteSpace=wrap;html=1;aspect=fixed;" vertex="1" parent="1">
          <mxGeometry x="215" y="217.5" width="45" height="45" as="geometry" />
        </mxCell>
        <mxCell id="q3IGI3SHitdTz25xL4jD-33" value="" style="endArrow=none;dashed=1;html=1;dashPattern=1 3;strokeWidth=2;rounded=0;" edge="1" parent="1">
          <mxGeometry width="50" height="50" relative="1" as="geometry">
            <mxPoint x="280" y="239.5" as="sourcePoint" />
            <mxPoint x="320" y="239.5" as="targetPoint" />
          </mxGeometry>
        </mxCell>
        <mxCell id="q3IGI3SHitdTz25xL4jD-34" value="" style="curved=1;endArrow=classic;html=1;rounded=0;entryX=1;entryY=0.5;entryDx=0;entryDy=0;exitX=1;exitY=0.5;exitDx=0;exitDy=0;" edge="1" parent="1" source="q3IGI3SHitdTz25xL4jD-22" target="q3IGI3SHitdTz25xL4jD-27">
          <mxGeometry width="50" height="50" relative="1" as="geometry">
            <mxPoint x="270" y="80" as="sourcePoint" />
            <mxPoint x="300" y="290" as="targetPoint" />
            <Array as="points">
              <mxPoint x="270" y="130" />
              <mxPoint x="280" y="207" />
            </Array>
          </mxGeometry>
        </mxCell>
        <mxCell id="q3IGI3SHitdTz25xL4jD-37" value="" style="endArrow=none;dashed=1;html=1;rounded=0;exitX=0.06;exitY=0.946;exitDx=0;exitDy=0;exitPerimeter=0;" edge="1" parent="1" source="q3IGI3SHitdTz25xL4jD-11">
          <mxGeometry width="50" height="50" relative="1" as="geometry">
            <mxPoint y="312.5" as="sourcePoint" />
            <mxPoint x="50" y="262.5" as="targetPoint" />
          </mxGeometry>
        </mxCell>
        <mxCell id="q3IGI3SHitdTz25xL4jD-38" value="" style="endArrow=none;dashed=1;html=1;rounded=0;exitX=0.957;exitY=0.962;exitDx=0;exitDy=0;exitPerimeter=0;entryX=1;entryY=1;entryDx=0;entryDy=0;" edge="1" parent="1" source="q3IGI3SHitdTz25xL4jD-11" target="q3IGI3SHitdTz25xL4jD-27">
          <mxGeometry width="50" height="50" relative="1" as="geometry">
            <mxPoint x="81.5" y="315" as="sourcePoint" />
            <mxPoint x="92.5" y="254.5" as="targetPoint" />
          </mxGeometry>
        </mxCell>
        <mxCell id="q3IGI3SHitdTz25xL4jD-40" value="" style="endArrow=none;dashed=1;html=1;rounded=0;exitX=0.976;exitY=0.077;exitDx=0;exitDy=0;entryX=1;entryY=0;entryDx=0;entryDy=0;exitPerimeter=0;" edge="1" parent="1" source="q3IGI3SHitdTz25xL4jD-11" target="q3IGI3SHitdTz25xL4jD-27">
          <mxGeometry width="50" height="50" relative="1" as="geometry">
            <mxPoint x="66.5" y="333" as="sourcePoint" />
            <mxPoint x="73.5" y="228" as="targetPoint" />
          </mxGeometry>
        </mxCell>
        <mxCell id="q3IGI3SHitdTz25xL4jD-39" value="" style="endArrow=none;dashed=1;html=1;rounded=0;exitX=0.022;exitY=0.06;exitDx=0;exitDy=0;entryX=0;entryY=0;entryDx=0;entryDy=0;exitPerimeter=0;" edge="1" parent="1" source="q3IGI3SHitdTz25xL4jD-11" target="q3IGI3SHitdTz25xL4jD-27">
          <mxGeometry width="50" height="50" relative="1" as="geometry">
            <mxPoint y="267.5" as="sourcePoint" />
            <mxPoint x="20" y="240" as="targetPoint" />
          </mxGeometry>
        </mxCell>
        <mxCell id="q3IGI3SHitdTz25xL4jD-11" value="" style="rounded=1;whiteSpace=wrap;html=1;" vertex="1" parent="1">
          <mxGeometry x="37.5" y="315" width="150" height="130" as="geometry" />
        </mxCell>
        <mxCell id="q3IGI3SHitdTz25xL4jD-12" value="OS_commsPacket_t" style="text;html=1;align=center;verticalAlign=middle;whiteSpace=wrap;rounded=0;fontStyle=1" vertex="1" parent="1">
          <mxGeometry x="47.5" y="325" width="130" height="30" as="geometry" />
        </mxCell>
        <mxCell id="q3IGI3SHitdTz25xL4jD-13" value="Data Memory Address" style="rounded=0;whiteSpace=wrap;html=1;" vertex="1" parent="1">
          <mxGeometry x="45" y="360" width="135" height="30" as="geometry" />
        </mxCell>
        <mxCell id="q3IGI3SHitdTz25xL4jD-14" value="Channel Number" style="rounded=0;whiteSpace=wrap;html=1;" vertex="1" parent="1">
          <mxGeometry x="45" y="400" width="135" height="30" as="geometry" />
        </mxCell>
        <mxCell id="q3IGI3SHitdTz25xL4jD-17" value="" style="endArrow=classic;html=1;rounded=0;entryX=0.333;entryY=0.548;entryDx=0;entryDy=0;entryPerimeter=0;" edge="1" parent="1" target="q3IGI3SHitdTz25xL4jD-16">
          <mxGeometry width="50" height="50" relative="1" as="geometry">
            <mxPoint x="177.5" y="375" as="sourcePoint" />
            <mxPoint x="247.5" y="375" as="targetPoint" />
          </mxGeometry>
        </mxCell>
        <mxCell id="q3IGI3SHitdTz25xL4jD-41" value="Packet Array - (Queue)" style="text;html=1;align=center;verticalAlign=middle;whiteSpace=wrap;rounded=0;fontStyle=1" vertex="1" parent="1">
          <mxGeometry x="25.5" y="187.5" width="180" height="30" as="geometry" />
        </mxCell>
      </root>
    </mxGraphModel>
  </diagram>
</mxfile>
